{"accessors":[{"bufferView":0,"componentType":5123,"count":24114,"max":[16261],"min":[0],"type":"SCALAR"},{"bufferView":1,"componentType":5126,"count":16262,"max":[1.020235538482666,1.0800085067749023,0.3005790114402771],"min":[-0.9482585191726685,-0.15057308971881866,-0.3218279480934143],"type":"VEC3"},{"bufferView":2,"componentType":5126,"count":16262,"max":[1.0,1.0,1.0],"min":[-1.0,-1.0,-1.0],"type":"VEC3"},{"bufferView":3,"componentType":5126,"count":16262,"max":[0.9989989995956421,0.9989989990135655],"min":[0.0010010009864345193,0.0010010004043579102],"type":"VEC2"}],"asset":{"generator":"Khronos Blender glTF 2.0 exporter","version":"2.0"},"bufferViews":[{"buffer":0,"byteLength":48228,"byteOffset":0,"target":34963},{"buffer":0,"byteLength":195144,"byteOffset":48228,"target":34962},{"buffer":0,"byteLength":195144,"byteOffset":243372,"target":34962},{"buffer":0,"byteLength":130096,"byteOffset":438516,"target":34962}],"buffers":[{"byteLength":568612,"uri":"data:application/octet-stream;base64,"}],"images":[{"mimeType":"image/png","name":"ao","uri":"data:image/png;base64,"}],"materials":[{"name":"wall","occlusionTexture":{"index":0},"pbrMetallicRoughness":{"metallicFactor":0.0}}],"meshes":[{"name":"Cube.006","primitives":[{"attributes":{"NORMAL":2,"POSITION":1,"TEXCOORD_0":3},"indices":0,"material":0}]}],"nodes":[{"mesh":0,"name":"ao","scale":[23.350919723510742,11.296398162841797,23.350919723510742]}],"samplers":[{}],"scene":0,"scenes":[{"name":"Scene","nodes":[0]}],"textures":[{"sampler":0,"source":0}]}
