{"accessors":[{"bufferView":0,"componentType":5123,"count":3336,"max":[2247],"min":[0],"type":"SCALAR"},{"bufferView":1,"componentType":5126,"count":2248,"max":[1.0202354192733765,0.1524273157119751,0.25091812014579773],"min":[-0.9482583999633789,-0.15057308971881866,-0.2694486081600189],"type":"VEC3"},{"bufferView":2,"componentType":5126,"count":2248,"max":[1.0,1.0,1.0],"min":[-1.0,-1.0,-1.0],"type":"VEC3"},{"bufferView":3,"componentType":5126,"count":2248,"max":[1.0,1.0,1.0,1.0],"min":[-1.0,-1.0,-1.0,-1.0],"type":"VEC4"},{"bufferView":4,"componentType":5126,"count":2248,"max":[0.9822392463684082,0.9989989990135655],"min":[0.0010010009864345193,0.040107131004333496],"type":"VEC2"},{"bufferView":5,"componentType":5121,"count":180,"max":[119],"min":[0],"type":"SCALAR"},{"bufferView":6,"componentType":5126,"count":120,"max":[1.0116703510284424,0.10247983038425446,0.24235308170318604],"min":[-0.9396934509277344,-0.1474677473306656,-0.260883629322052],"type":"VEC3"},{"bufferView":7,"componentType":5126,"count":120,"max":[1.0,-0.0,1.0],"min":[-1.0,-0.0,-1.0],"type":"VEC3"},{"bufferView":8,"componentType":5126,"count":120,"max":[1.0,1.0,1.0,-1.0],"min":[-1.0,0.0,-1.0,-1.0],"type":"VEC4"},{"bufferView":9,"componentType":5126,"count":120,"max":[0.9822392463684082,0.9543062597513199],"min":[0.0010010009864345193,0.017760753631591797],"type":"VEC2"},{"bufferView":10,"componentType":5123,"count":5838,"max":[3933],"min":[0],"type":"SCALAR"},{"bufferView":11,"componentType":5126,"count":3934,"max":[1.020235538482666,0.4523226022720337,0.3005790114402771],"min":[-0.9482585191726685,0.13145947456359863,-0.3218279480934143],"type":"VEC3"},{"bufferView":12,"componentType":5126,"count":3934,"max":[1.0,1.0,1.0],"min":[-1.0,-1.0,-1.0],"type":"VEC3"},{"bufferView":13,"componentType":5126,"count":3934,"max":[0.9989989995956421,0.9989989990135655],"min":[0.0010010009864345193,0.0010010004043579102],"type":"VEC2"},{"bufferView":14,"componentType":5121,"count":180,"max":[119],"min":[0],"type":"SCALAR"},{"bufferView":15,"componentType":5126,"count":120,"max":[1.0116703510284424,0.40237492322921753,0.2454906702041626],"min":[-0.9396934509277344,0.15242734551429749,-0.260883629322052],"type":"VEC3"},{"bufferView":16,"componentType":5126,"count":120,"max":[1.0,-0.0,1.0],"min":[-1.0,-0.0,-1.0],"type":"VEC3"},{"bufferView":17,"componentType":5126,"count":120,"max":[0.9375464916229248,0.9989989990135655],"min":[0.0010010009864345193,0.017760753631591797],"type":"VEC2"},{"bufferView":18,"componentType":5123,"count":5856,"max":[3977],"min":[0],"type":"SCALAR"},{"bufferView":19,"componentType":5126,"count":3978,"max":[1.020235538482666,1.0800085067749023,0.25091826915740967],"min":[-0.9482585191726685,0.7246948480606079,-0.3218279480934143],"type":"VEC3"},{"bufferView":20,"componentType":5126,"count":3978,"max":[1.0,1.0,1.0],"min":[-1.0,-1.0,-1.0],"type":"VEC3"},{"bufferView":21,"componentType":5126,"count":3978,"max":[1.0,1.0,1.0,1.0],"min":[-1.0,-1.0,-1.0,-1.0],"type":"VEC4"},{"bufferView":22,"componentType":5126,"count":3978,"max":[0.993412435054779,0.9989989990135655],"min":[0.0010010009864345193,0.006587564945220947],"type":"VEC2"},{"bufferView":23,"componentType":5121,"count":174,"max":[115],"min":[0],"type":"SCALAR"},{"bufferView":24,"componentType":5126,"count":116,"max":[1.0116703510284424,0.9863995313644409,0.24345946311950684],"min":[-0.892767608165741,0.7522175908088684,-0.2525579333305359],"type":"VEC3"},{"bufferView":25,"componentType":5126,"count":116,"max":[1.0,-0.0,1.0],"min":[-1.0,-1.2726140141694486e-07,-1.0],"type":"VEC3"},{"bufferView":26,"componentType":5126,"count":116,"max":[1.0,1.0,1.0,-1.0],"min":[-1.0,-1.0,-1.0,-1.0],"type":"VEC4"},{"bufferView":27,"componentType":5126,"count":116,"max":[0.9375464916229248,0.9096135273575783],"min":[0.09038647264242172,0.062453508377075195],"type":"VEC2"},{"bufferView":28,"componentType":5123,"count":2463,"max":[1640],"min":[0],"type":"SCALAR"},{"bufferView":29,"componentType":5126,"count":1641,"max":[1.020235538482666,1.0800085067749023,0.25091832876205444],"min":[-0.9011106491088867,0.9936412572860718,-0.26112306118011475],"type":"VEC3"},{"bufferView":30,"componentType":5126,"count":1641,"max":[1.0,1.0,1.0],"min":[-1.0,-1.0,-1.0],"type":"VEC3"},{"bufferView":31,"componentType":5126,"count":1641,"max":[0.9878258109092712,0.9989989990135655],"min":[0.0010010009864345193,0.006587564945220947],"type":"VEC2"},{"bufferView":32,"componentType":5123,"count":5895,"max":[3976],"min":[0],"type":"SCALAR"},{"bufferView":33,"componentType":5126,"count":3977,"max":[1.020235538482666,0.7522703409194946,0.3005790114402771],"min":[-0.9482585191726685,0.40237492322921753,-0.3218279480934143],"type":"VEC3"},{"bufferView":34,"componentType":5126,"count":3977,"max":[1.0,1.0,1.0],"min":[-1.0,-1.0,-1.0],"type":"VEC3"},{"bufferView":35,"componentType":5126,"count":3977,"max":[1.0,1.0,1.0,1.0],"min":[-1.0,-1.0,-1.0,-1.0],"type":"VEC4"},{"bufferView":36,"componentType":5126,"count":3977,"max":[0.9989989995956421,0.9989989990135655],"min":[0.0010010009864345193,0.0010010004043579102],"type":"VEC2"},{"bufferView":37,"componentType":5121,"count":192,"max":[127],"min":[0],"type":"SCALAR"},{"bufferView":38,"componentType":5126,"count":128,"max":[1.011670470237732,0.7617627382278442,0.24552643299102783],"min":[-0.9396934509277344,0.45232248306274414,-0.2608835995197296],"type":"VEC3"},{"bufferView":39,"componentType":5126,"count":128,"max":[1.0,-0.0,1.0],"min":[-1.0,-0.0,-1.0],"type":"VEC3"},{"bufferView":40,"componentType":5126,"count":128,"max":[1.0,1.0,1.0,-1.0],"min":[-1.0,-1.0,-1.0,-1.0],"type":"VEC4"},{"bufferView":41,"componentType":5126,"count":128,"max":[0.9375464916229248,0.9096135273575783],"min":[0.0010010009864345193,0.040107131004333496],"type":"VEC2"}],"asset":{"generator":"Khronos Blender glTF 2.0 exporter","version":"2.0"},"bufferViews":[{"buffer":0,"byteLength":6672,"byteOffset":0,"target":34963},{"buffer":0,"byteLength":26976,"byteOffset":6672,"target":34962},{"buffer":0,"byteLength":26976,"byteOffset":33648,"target":34962},{"buffer":0,"byteLength":35968,"byteOffset":60624,"target":34962},{"buffer":0,"byteLength":17984,"byteOffset":96592,"target":34962},{"buffer":0,"byteLength":180,"byteOffset":114576,"target":34963},{"buffer":0,"byteLength":1440,"byteOffset":114756,"target":34962},{"buffer":0,"byteLength":1440,"byteOffset":116196,"target":34962},{"buffer":0,"byteLength":1920,"byteOffset":117636,"target":34962},{"buffer":0,"byteLength":960,"byteOffset":119556,"target":34962},{"buffer":0,"byteLength":11676,"byteOffset":120516,"target":34963},{"buffer":0,"byteLength":47208,"byteOffset":132192,"target":34962},{"buffer":0,"byteLength":47208,"byteOffset":179400,"target":34962},{"buffer":0,"byteLength":31472,"byteOffset":226608,"target":34962},{"buffer":0,"byteLength":180,"byteOffset":258080,"target":34963},{"buffer":0,"byteLength":1440,"byteOffset":258260,"target":34962},{"buffer":0,"byteLength":1440,"byteOffset":259700,"target":34962},{"buffer":0,"byteLength":960,"byteOffset":261140,"target":34962},{"buffer":0,"byteLength":11712,"byteOffset":262100,"target":34963},{"buffer":0,"byteLength":47736,"byteOffset":273812,"target":34962},{"buffer":0,"byteLength":47736,"byteOffset":321548,"target":34962},{"buffer":0,"byteLength":63648,"byteOffset":369284,"target":34962},{"buffer":0,"byteLength":31824,"byteOffset":432932,"target":34962},{"buffer":0,"byteLength":174,"byteOffset":464756,"target":34963},{"buffer":0,"byteLength":1392,"byteOffset":464932,"target":34962},{"buffer":0,"byteLength":1392,"byteOffset":466324,"target":34962},{"buffer":0,"byteLength":1856,"byteOffset":467716,"target":34962},{"buffer":0,"byteLength":928,"byteOffset":469572,"target":34962},{"buffer":0,"byteLength":4926,"byteOffset":470500,"target":34963},{"buffer":0,"byteLength":19692,"byteOffset":475428,"target":34962},{"buffer":0,"byteLength":19692,"byteOffset":495120,"target":34962},{"buffer":0,"byteLength":13128,"byteOffset":514812,"target":34962},{"buffer":0,"byteLength":11790,"byteOffset":527940,"target":34963},{"buffer":0,"byteLength":47724,"byteOffset":539732,"target":34962},{"buffer":0,"byteLength":47724,"byteOffset":587456,"target":34962},{"buffer":0,"byteLength":63632,"byteOffset":635180,"target":34962},{"buffer":0,"byteLength":31816,"byteOffset":698812,"target":34962},{"buffer":0,"byteLength":192,"byteOffset":730628,"target":34963},{"buffer":0,"byteLength":1536,"byteOffset":730820,"target":34962},{"buffer":0,"byteLength":1536,"byteOffset":732356,"target":34962},{"buffer":0,"byteLength":2048,"byteOffset":733892,"target":34962},{"buffer":0,"byteLength":1024,"byteOffset":735940,"target":34962}],"buffers":[{"byteLength":736964,"uri":"data:application/octet-stream;base64,"}],"images":[{"mimeType":"image/png","name":"building_ao","uri":"data:image/png;base64,"}],"materials":[{"name":"glass","pbrMetallicRoughness":{"baseColorFactor":[0.09822967648506165,0.26974284648895264,0.5705510377883911,1.0],"roughnessFactor":0.0}},{"emissiveFactor":[1.0,1.0,1.0],"emissiveTexture":{"index":0},"name":"wall","occlusionTexture":{"index":0},"pbrMetallicRoughness":{"metallicFactor":0.0}}],"meshes":[{"name":"Cube.000","primitives":[{"attributes":{"NORMAL":2,"POSITION":1,"TANGENT":3,"TEXCOORD_0":4},"indices":0,"material":1},{"attributes":{"NORMAL":7,"POSITION":6,"TANGENT":8,"TEXCOORD_0":9},"indices":5,"material":0}]},{"name":"Cube.001","primitives":[{"attributes":{"NORMAL":12,"POSITION":11,"TEXCOORD_0":13},"indices":10,"material":1},{"attributes":{"NORMAL":16,"POSITION":15,"TEXCOORD_0":17},"indices":14,"material":0}]},{"name":"Cube.073","primitives":[{"attributes":{"NORMAL":20,"POSITION":19,"TANGENT":21,"TEXCOORD_0":22},"indices":18,"material":1},{"attributes":{"NORMAL":25,"POSITION":24,"TANGENT":26,"TEXCOORD_0":27},"indices":23,"material":0}]},{"name":"Cube.003","primitives":[{"attributes":{"NORMAL":30,"POSITION":29,"TEXCOORD_0":31},"indices":28,"material":1}]},{"name":"Cube.002","primitives":[{"attributes":{"NORMAL":34,"POSITION":33,"TANGENT":35,"TEXCOORD_0":36},"indices":32,"material":1},{"attributes":{"NORMAL":39,"POSITION":38,"TANGENT":40,"TEXCOORD_0":41},"indices":37,"material":0}]}],"nodes":[{"mesh":1,"name":"1er","scale":[23.350919723510742,11.296398162841797,23.350919723510742]},{"mesh":4,"name":"2eme","scale":[23.350919723510742,11.296398162841797,23.350919723510742]},{"mesh":2,"name":"3eme","scale":[23.350919723510742,11.296398162841797,23.350919723510742]},{"mesh":0,"name":"RDC","scale":[23.350919723510742,11.296398162841797,23.350919723510742]},{"mesh":3,"name":"toit","scale":[23.350919723510742,11.296398162841797,23.350919723510742]}],"samplers":[{}],"scene":0,"scenes":[{"name":"Scene","nodes":[4,1,0,3,2]}],"textures":[{"sampler":0,"source":0}]}
