<?xml version="1.0" encoding="UTF-8" standalone="no"?>
<!DOCTYPE svg PUBLIC "-//W3C//DTD SVG 1.1//EN" "http://www.w3.org/Graphics/SVG/1.1/DTD/svg11.dtd">
<svg viewBox="0 0 1090 332" version="1.1" xmlns="http://www.w3.org/2000/svg" xmlns:xlink="http://www.w3.org/1999/xlink" xml:space="preserve" style="fill-rule:evenodd;clip-rule:evenodd;stroke-linejoin:round;stroke-miterlimit:1.41421;">
    <path id="typo" d="M929.44,197L848.87,197C852.36,212.58 865.27,220.58 880.65,220.58C894.39,220.58 900.53,217.3 908.12,212.38L922.88,226.53C913.45,236.57 900.13,242.93 879.83,242.93C852.98,242.93 822.22,224.48 822.22,187.78C822.22,150.88 853.59,132.43 877.78,132.43C901.97,132.43 935.18,150.88 929.44,197ZM1047.73,187.78C1047.73,225.09 1016.36,242.93 992.17,242.93C967.98,242.93 936.61,225.1 936.61,187.78C936.61,150.88 967.98,132.43 992.17,132.43C1016.36,132.43 1047.73,150.88 1047.73,187.78ZM581.15,240.87L554.71,240.87L554.71,225.5C553.89,231.24 542.61,242.92 523.14,242.92C498.74,242.92 470.25,225.09 470.25,187.57C470.25,150.88 498.75,132.42 523.14,132.42C542.61,132.43 553.89,144.73 554.71,148.21L554.71,134.27L581.15,134.27L581.15,240.87ZM596.11,95.93L622.56,95.93L622.56,148.21C623.38,144.72 634.65,132.42 654.13,132.42C678.52,132.43 707.02,150.88 707.02,187.57C707.02,225.09 678.52,242.92 654.13,242.92C634.65,242.92 623.38,231.24 622.56,225.5L622.56,240.88L596.11,240.88L596.11,95.93ZM796.2,134.27L818.75,134.27L818.75,156L796.2,156L796.2,208.69C796.2,214.02 797.84,218.94 804.81,218.94C810.54,218.94 814.44,218.12 818.95,216.48L818.95,238.41C814.44,240.66 807.88,242.1 798.04,242.1C782.87,242.1 769.75,236.56 769.75,209.09L769.75,156L754.99,156L754.99,134.27L769.75,134.27L769.75,109.26L796.2,109.26L796.2,134.27ZM369.18,240.87L342.33,240.87L342.33,97.37L369.18,97.37L369.18,157.03L430.68,157.03L430.68,97.37L457.54,97.37L457.54,240.87L430.68,240.87L430.68,181.83L369.18,181.83L369.18,240.87ZM744.74,240.87L718.29,240.87L718.29,134.27L744.74,134.27L744.74,240.87ZM962.24,187.78C962.24,208.69 978.03,219.56 992.17,219.56C1006.31,219.56 1022.31,208.69 1022.31,187.78C1022.31,166.66 1006.32,155.8 992.17,155.8C978.02,155.8 962.24,166.66 962.24,187.78ZM495.87,187.57C495.87,208.69 511.25,219.55 526.62,219.55C541.99,219.55 555.94,208.89 555.94,187.57C555.94,166.45 542,155.8 526.62,155.8C511.24,155.8 495.87,166.66 495.87,187.57ZM681.39,187.57C681.39,166.66 666.01,155.8 650.64,155.8C635.27,155.8 621.32,166.46 621.32,187.57C621.32,208.89 635.26,219.55 650.64,219.55C666.02,219.55 681.39,208.69 681.39,187.57ZM849.08,177.94L906.28,177.94C903.2,162.77 889.68,154.98 877.78,154.98C865.89,154.98 852.98,162.77 849.08,177.94ZM744.74,118.48L718.29,118.48L718.29,95.93L744.74,95.93L744.74,118.48Z" style="fill:white;"/>
    <path id="back-right" d="M248.56,53.81C258.35,59.54 268.12,65.3 277.93,70.99C286.31,75.86 294.69,80.71 303.14,85.46C309.93,89.28 313.26,95 313.26,102.75C313.26,110.98 313.32,119.22 313.36,127.45C313.31,138.22 313.23,148.99 313.23,159.76C313.23,182.58 313.28,205.4 313.31,228.22C313.32,232.32 312.56,236.17 309.84,239.42C308.52,240.22 307.42,239.55 306.29,238.92C290.97,230.28 275.66,221.61 260.29,213.06C258.86,212.26 257.27,211.57 256.7,209.79C256.34,208.24 256.45,206.66 256.45,205.09C256.44,182.62 256.44,160.16 256.45,137.69C256.45,135.53 256.45,133.36 255.65,131.3C254.39,128.03 251.87,126.55 248.66,127.86C243.12,130.12 237.8,132.92 232.98,136.47C230.01,138.66 229.33,142.1 229.33,145.7C229.36,160.12 229.35,174.54 229.34,188.97C229.34,190.44 229.47,191.92 229.04,193.35C227.94,195.31 226.66,194.02 225.58,193.42C218.27,189.4 211.04,185.26 203.76,181.2C199.39,178.76 195.07,176.24 190.67,173.86C188.98,172.94 187.05,172.19 186.5,169.98C186.22,168.52 186.28,167.04 186.28,165.57C186.27,119.34 186.27,73.12 186.3,26.89C186.3,25.07 185.86,23.13 187.23,21.52C191.34,21.18 194.85,22.85 198.27,24.83C214.17,34.06 230.07,43.29 245.97,52.51C246.79,53 247.69,53.38 248.56,53.81" style="fill:rgb(222,241,225);fill-rule:nonzero;"/>
    <path id="back-left" d="M187.21,21.53C187.21,71.37 187.21,121.2 187.2,171.03C186.7,172.49 185.34,172.99 184.17,173.64C173.12,179.76 162.16,186.03 151.11,192.15C149.82,192.86 148.36,194.81 146.59,192.7C146.16,191.26 146.28,189.78 146.28,188.31C146.27,174.29 146.18,160.27 146.32,146.25C146.38,140.37 144.05,136.35 138.7,133.87C135.51,132.39 132.53,130.44 129.41,128.79C123.86,125.85 120.07,127.89 119.3,134.15C119.12,135.61 119.17,137.09 119.17,138.56C119.17,160.52 119.17,182.48 119.16,204.44C119.16,206.01 119.27,207.58 118.94,209.13C118.52,210.76 117.08,211.34 115.82,212.05C103.87,218.78 91.91,225.51 79.96,232.24C76.12,234.41 72.24,236.51 68.43,238.72C67.43,239.3 66.46,240.11 65.18,239.43C62.42,236.05 61.79,232.04 61.79,227.85C61.79,207.34 61.81,186.83 61.8,166.31C61.79,145.31 61.82,124.3 61.69,103.3C61.64,95.25 65.04,89.52 71.97,85.51C106.74,65.39 141.45,45.19 176.18,25.02C179.61,23.06 183.08,21.26 187.21,21.53" style="fill:rgb(182,226,192);fill-rule:nonzero;"/>
    <path id="Front" d="M187.089,250.091C184.798,250.585 183.297,248.883 181.58,247.94C171.11,242.17 160.78,236.15 150.31,230.36C149.73,230.04 149.2,229.54 148.39,229.59C147.63,230.52 148.01,231.63 148.01,232.65C147.98,249.71 148,266.77 147.97,283.82C147.97,285.33 148.41,287 147.06,288.25C137.47,282.76 127.89,277.26 118.3,271.77C117.31,270.64 117.35,269.24 117.35,267.87C117.33,249.87 117.34,231.87 117.34,213.87C117.34,212.47 117.52,211.14 118.2,209.9C118.23,185.85 118.27,161.8 118.3,137.75C118.3,135.89 118.32,134.04 118.76,132.19C120,126.95 123.23,125 128.1,127.24C132.98,129.49 137.71,132.12 142.27,134.96C145.86,137.19 147.19,140.86 147.18,145.08C147.14,160.1 147.16,175.12 147.17,190.14C147.17,191.22 147.23,192.29 147.26,193.37C154.47,198.41 162.39,202.25 169.99,206.63C175.14,209.6 180.28,212.61 185.53,215.41C186.369,215.897 187.28,216.343 187.679,217.291C188.314,216.413 189.307,215.877 190.26,215.34C202.31,208.64 214.26,201.77 226.26,195C226.94,194.62 227.78,194.59 228.36,194.01C228.39,177.84 228.49,161.66 228.42,145.49C228.4,139.88 230.76,135.99 235.72,133.47C239.29,131.65 242.73,129.57 246.3,127.74C252.02,124.82 255.74,126.63 257.02,132.92C257.29,134.25 257.3,135.64 257.31,137.01C257.33,160.34 257.32,183.68 257.33,207.01C257.33,208.19 257.39,209.36 257.42,210.54C258.18,211.86 258.28,213.32 258.28,214.8C258.28,232.33 258.28,249.87 258.28,267.4C258.28,268.88 258.24,270.34 257.45,271.66C247.88,277.33 238.38,283.12 228.53,288.31C227.24,287.03 227.66,285.37 227.65,283.86C227.62,267.02 227.63,250.18 227.63,233.34C227.63,232.85 227.6,232.36 227.64,231.87C227.82,229.81 227.33,229.19 225.25,230.35C219.43,233.59 213.67,236.92 207.87,240.18C202.07,243.44 196.27,246.72 190.46,249.96C189.426,250.533 188.092,251.866 187.089,250.091Z" style="fill:rgb(77,176,80);"/>
    <path id="floor" d="M147.06,288.27C147.09,269.24 147.13,250.22 147.16,231.19C147.16,230.15 147.16,229.11 147.16,227.64C160.74,235.26 173.94,242.67 187.14,250.07C188.38,251.03 189.11,249.77 189.92,249.32C201.98,242.57 214,235.77 226.03,228.98C226.7,228.6 227.39,228.28 228.52,227.71L228.52,288.3C219.43,293.68 210.34,299.04 201.26,304.43C197.13,306.89 193.06,309.41 188,309.49C184.25,309.55 180.86,308.42 177.68,306.58C167.93,300.95 158.2,295.29 148.46,289.65C147.86,289.32 147.27,289.01 147.06,288.27ZM118.2,209.93C118.23,230.55 118.27,251.17 118.3,271.79C111.86,268.92 106.02,264.96 99.9,261.52C90.59,256.29 81.38,250.91 72.13,245.58C69.4,244.01 66.78,242.31 65.19,239.45C70.74,237 75.84,233.7 81.13,230.78C91.4,225.12 101.57,219.26 111.78,213.49C113.92,212.28 116.06,211.11 118.2,209.93ZM257.44,271.67C257.43,251.29 257.42,230.92 257.41,210.54C273.96,219.9 290.51,229.25 307.06,238.62C307.93,239.11 308.81,239.48 309.83,239.44C308.6,241.79 306.54,243.31 304.35,244.58C288.73,253.64 273.08,262.64 257.44,271.67ZM187.79,217.62C174.95,210.35 162.11,203.1 149.29,195.81C148.37,195.29 146.85,195.13 147.26,193.42C160.57,185.96 173.89,178.5 187.21,171.04C200.64,178.63 214.08,186.23 227.52,193.81C227.76,193.95 228.08,193.95 228.37,194.02C228.01,195.51 226.55,195.69 225.52,196.28C212.95,203.42 200.37,210.51 187.79,217.62Z" style="fill:white;"/>
</svg>
